<svg width="1440" height="504" viewBox="0 0 1440 504" fill="none" xmlns="http://www.w3.org/2000/svg">
<g filter="url(#filter0_d)">
<path d="M-48 11H1485V491.318C1419.42 504 1346.56 466.591 1200.12 482.761C1053.68 498.93 1043.7 505.588 833.114 471.347C622.53 437.106 605.779 518.904 349.596 482.761C144.65 453.846 -0.862305 470.713 -48 482.761V11Z" fill="url(#paint0_linear)"/>
</g>
<g filter="url(#filter1_d)">
<path d="M1454.34 11H-17.3396V296.376C45.62 303.11 115.558 252.938 256.141 261.525C396.724 270.111 406.311 273.647 608.471 255.464C810.632 237.28 826.712 280.718 1072.65 261.525C1269.4 246.17 1409.09 255.127 1454.34 261.525V11Z" fill="url(#paint1_linear)"/>
</g>
<g filter="url(#filter2_d)">
<path d="M1453.54 0H-17.24V282.5C45.6811 289.167 115.577 239.5 256.073 248C396.57 256.5 406.151 260 608.188 242C810.225 224 826.295 267 1072.08 248C1268.71 232.8 1408.31 241.667 1453.54 248V0Z" fill="url(#paint2_linear)"/>
</g>
<defs>
<filter id="filter0_d" x="-52" y="11" width="1541" height="493" filterUnits="userSpaceOnUse" color-interpolation-filters="sRGB">
<feFlood flood-opacity="0" result="BackgroundImageFix"/>
<feColorMatrix in="SourceAlpha" type="matrix" values="0 0 0 0 0 0 0 0 0 0 0 0 0 0 0 0 0 0 127 0"/>
<feOffset dy="4"/>
<feGaussianBlur stdDeviation="2"/>
<feColorMatrix type="matrix" values="0 0 0 0 0 0 0 0 0 0 0 0 0 0 0 0 0 0 0.25 0"/>
<feBlend mode="normal" in2="BackgroundImageFix" result="effect1_dropShadow"/>
<feBlend mode="normal" in="SourceGraphic" in2="effect1_dropShadow" result="shape"/>
</filter>
<filter id="filter1_d" x="-21.3396" y="11" width="1479.68" height="294" filterUnits="userSpaceOnUse" color-interpolation-filters="sRGB">
<feFlood flood-opacity="0" result="BackgroundImageFix"/>
<feColorMatrix in="SourceAlpha" type="matrix" values="0 0 0 0 0 0 0 0 0 0 0 0 0 0 0 0 0 0 127 0"/>
<feOffset dy="4"/>
<feGaussianBlur stdDeviation="2"/>
<feColorMatrix type="matrix" values="0 0 0 0 0 0 0 0 0 0 0 0 0 0 0 0 0 0 0.25 0"/>
<feBlend mode="normal" in2="BackgroundImageFix" result="effect1_dropShadow"/>
<feBlend mode="normal" in="SourceGraphic" in2="effect1_dropShadow" result="shape"/>
</filter>
<filter id="filter2_d" x="-21.24" y="0" width="1478.78" height="291.118" filterUnits="userSpaceOnUse" color-interpolation-filters="sRGB">
<feFlood flood-opacity="0" result="BackgroundImageFix"/>
<feColorMatrix in="SourceAlpha" type="matrix" values="0 0 0 0 0 0 0 0 0 0 0 0 0 0 0 0 0 0 127 0"/>
<feOffset dy="4"/>
<feGaussianBlur stdDeviation="2"/>
<feColorMatrix type="matrix" values="0 0 0 0 0 0 0 0 0 0 0 0 0 0 0 0 0 0 0.25 0"/>
<feBlend mode="normal" in2="BackgroundImageFix" result="effect1_dropShadow"/>
<feBlend mode="normal" in="SourceGraphic" in2="effect1_dropShadow" result="shape"/>
</filter>
<linearGradient id="paint0_linear" x1="654.966" y1="706.276" x2="684.659" y2="-125.779" gradientUnits="userSpaceOnUse">
<stop stop-color="#C61BA0"/>
<stop offset="1" stop-color="#F4D2AA"/>
</linearGradient>
<linearGradient id="paint1_linear" x1="779.493" y1="380.221" x2="770.763" y2="-62.0257" gradientUnits="userSpaceOnUse">
<stop stop-color="#C61BA0"/>
<stop offset="1" stop-color="#F4D2AA"/>
</linearGradient>
<linearGradient id="paint2_linear" x1="779.105" y1="365.5" x2="770.544" y2="-72.293" gradientUnits="userSpaceOnUse">
<stop stop-color="#D921B0"/>
<stop offset="1" stop-color="#CCFF3A"/>
</linearGradient>
</defs>
</svg>
